<svg width="56" height="61" viewBox="0 0 56 61" fill="none" xmlns="http://www.w3.org/2000/svg">
<path d="M37.7176 4.89641L21.7 22.345C20.8416 23.2811 20.2178 24.4514 19.8965 25.73L18.6047 30.8895C18.3381 31.9587 18.6075 33.0646 19.3266 33.8479C19.8638 34.4323 20.5638 34.7438 21.2925 34.7438C21.5413 34.7438 21.7944 34.7074 22.0431 34.6335L26.779 33.2269H26.7803C27.9519 32.8784 29.0265 32.1986 29.8865 31.2618L45.9041 13.8149C48.1601 11.3569 48.1601 7.35684 45.9041 4.89758C43.6457 2.43849 39.9735 2.43849 37.7177 4.89724L37.7176 4.89641Z" fill="black"/>
<path d="M15.4 45.7496H37.38C41.2397 45.7496 44.38 42.3289 44.38 38.1246V23.4698C44.38 22.6277 43.7538 21.9448 42.98 21.9448C42.2063 21.9448 41.58 22.6277 41.58 23.4698V38.1246C41.58 40.6473 39.6959 42.6996 37.38 42.6996H15.4C13.0841 42.6996 11.2 40.6473 11.2 38.1246V14.1821C11.2 11.6594 13.0841 9.60713 15.4 9.60713H28.8544C29.6282 9.60713 30.2544 8.92429 30.2544 8.08213C30.2544 7.23997 29.6282 6.55713 28.8544 6.55713H15.4C11.5403 6.55713 8.40002 9.97784 8.40002 14.1821V38.1246C8.40002 42.3289 11.5403 45.7496 15.4 45.7496Z" fill="black"/>
</svg>
