<svg width="57" height="40" viewBox="0 0 57 40" fill="none" xmlns="http://www.w3.org/2000/svg">
<path d="M11.234 0.000498187C11.7067 0.00527409 12.1579 0.192726 12.4874 0.520676C12.8163 0.849024 12.9959 1.29079 12.9864 1.74809V10.8773C12.9864 13.7301 10.9768 16.1507 8.26417 16.9036V38.264C8.27076 38.7221 8.08712 39.1638 7.75444 39.4902C7.42177 39.8161 6.9672 40 6.49328 40C6.01937 40 5.56482 39.8161 5.23212 39.4902C4.89944 39.1638 4.71581 38.722 4.72239 38.264V16.9036C2.00992 16.1506 0.000171324 13.7301 0.000171324 10.8773V1.74809C-0.00641645 1.28961 0.177219 0.848239 0.509896 0.521899C0.842995 0.195548 1.29714 0.0116754 1.77106 0.0116754C2.24538 0.0116754 2.69952 0.195548 3.03222 0.521899C3.36492 0.848249 3.54854 1.28963 3.54195 1.74809V10.8773C3.54195 11.8332 4.00556 12.6634 4.72237 13.1772V1.74769C4.71249 1.28442 4.89736 0.837083 5.23457 0.507533C5.57137 0.178391 6.03252 -0.00467739 6.51176 9.08677e-05C6.98443 0.00486677 7.43569 0.192319 7.76512 0.520269C8.0941 0.848616 8.27402 1.29038 8.26415 1.74769V13.1772C8.98098 12.6634 9.44457 11.8333 9.44457 10.8773V1.74809C9.43469 1.28483 9.61914 0.83749 9.95636 0.507941C10.2936 0.178798 10.7547 -0.00427007 11.234 0.000498187ZM50.1735 0.0363174C52.1952 0.0363174 53.9026 1.22675 54.988 2.79997C56.0733 4.37319 56.6667 6.39583 56.6667 8.59473C56.6667 10.7936 56.0734 12.7983 54.988 14.3716C54.2386 15.4581 53.1858 16.3535 51.9444 16.8145V38.2635C51.951 38.7216 51.7674 39.1633 51.4343 39.4897C51.1016 39.8156 50.6475 39.9995 50.1731 39.9995C49.6992 39.9995 49.2451 39.8156 48.9124 39.4897C48.5793 39.1633 48.3957 38.7215 48.4027 38.2635V16.8145C47.1613 16.354 46.1084 15.4582 45.3591 14.3716C44.2738 12.7983 43.6805 10.7936 43.6805 8.59473C43.6805 6.39583 44.2738 4.37319 45.3591 2.79997C46.4445 1.22675 48.1519 0.0363174 50.1735 0.0363174ZM50.1735 3.45989C49.5872 3.45989 48.9346 3.78544 48.3104 4.69005C47.6866 5.59469 47.2222 7.01234 47.2222 8.59473C47.2222 10.1771 47.6866 11.5769 48.3104 12.4815C48.9342 13.3861 49.5872 13.7296 50.1735 13.7296C50.7599 13.7296 51.4125 13.3861 52.0367 12.4815C52.6605 11.5768 53.1249 10.1767 53.1249 8.59473C53.1249 7.01234 52.6604 5.5947 52.0367 4.69005C51.4129 3.78542 50.7599 3.45989 50.1735 3.45989ZM28.3338 6.88345C37.7666 6.88345 45.4514 14.3115 45.4514 23.4297C45.4514 32.5477 37.7668 39.976 28.3338 39.976C18.9009 39.976 11.2161 32.5479 11.2161 23.4297C11.2161 14.3117 18.9011 6.88345 28.3338 6.88345ZM28.3338 10.307C20.8151 10.307 14.7577 16.1623 14.7577 23.4299C14.7577 30.6976 20.8152 36.5528 28.3338 36.5528C35.8525 36.5528 41.9098 30.6975 41.9098 23.4299C41.9098 16.1622 35.8528 10.307 28.3338 10.307ZM28.3338 14.3008C33.5286 14.3008 37.7782 18.4081 37.7782 23.43C37.7782 28.4515 33.5291 32.5592 28.3338 32.5592C23.1389 32.5592 18.8893 28.452 18.8893 23.43C18.8893 18.4086 23.1384 14.3008 28.3338 14.3008ZM28.3338 17.7244C25.0526 17.7244 22.4311 20.2584 22.4311 23.43C22.4311 26.6012 25.053 29.1356 28.3338 29.1356C31.6145 29.1356 34.2364 26.6012 34.2364 23.43C34.2364 20.2584 31.6149 17.7244 28.3338 17.7244Z" fill="black"/>
</svg>
