<svg width="41" height="40" viewBox="0 0 41 40" fill="none" xmlns="http://www.w3.org/2000/svg">
<g clip-path="url(#clip0_50_692)">
<path d="M20.4998 0.0290527C9.38394 0.0290527 0.339844 9.07225 0.339844 20.1891C0.339844 31.3059 9.38394 40.3491 20.4998 40.3491C31.6157 40.3491 40.6598 31.3059 40.6598 20.1891C40.6598 9.07315 31.6157 0.0290527 20.4998 0.0290527ZM7.04484 33.8034C9.4365 28.5461 14.6794 25.1571 20.4656 25.1571C26.2858 25.1571 31.5221 28.5612 33.9053 33.8491C30.4481 37.2431 25.7146 39.3415 20.4989 39.3415C15.2592 39.3415 10.5053 37.2247 7.04395 33.8034H7.04484ZM34.655 33.076C32.0362 27.6328 26.5501 24.1491 20.4656 24.1491C14.417 24.1491 8.92764 27.6176 6.30054 33.0277C3.22398 29.6284 1.34703 25.1243 1.34703 20.1892C1.34703 9.62864 9.93852 1.03723 20.499 1.03723C31.0596 1.03723 39.651 9.62873 39.651 20.1892C39.651 25.1473 37.7568 29.6707 34.6546 33.0754L34.655 33.076Z" fill="black"/>
<path d="M20.4996 4.91882C15.9483 4.91882 12.2456 8.62151 12.2456 13.1728C12.2456 17.7241 15.9483 21.4268 20.4996 21.4268C25.0509 21.4268 28.7536 17.7241 28.7536 13.1728C28.7536 8.62151 25.0509 4.91882 20.4996 4.91882ZM20.4996 20.4186C16.504 20.4186 13.2535 17.1681 13.2535 13.1725C13.2535 9.17699 16.504 5.92646 20.4996 5.92646C24.4951 5.92646 27.7457 9.17699 27.7457 13.1725C27.7457 17.1677 24.4951 20.4186 20.4996 20.4186Z" fill="black"/>
</g>
<defs>
<clipPath id="clip0_50_692">
<rect width="41" height="40" fill="white"/>
</clipPath>
</defs>
</svg>
