<svg width="41" height="40" viewBox="0 0 41 40" fill="none" xmlns="http://www.w3.org/2000/svg">
<g clip-path="url(#clip0_60_1091)">
<path d="M20.5001 0.0290527C9.38416 0.0290527 0.340057 9.07225 0.340057 20.1891C0.340057 31.3059 9.38416 40.3491 20.5001 40.3491C31.616 40.3491 40.6601 31.3059 40.6601 20.1891C40.6601 9.07315 31.616 0.0290527 20.5001 0.0290527ZM7.04506 33.8034C9.43672 28.5461 14.6796 25.1571 20.4659 25.1571C26.286 25.1571 31.5224 28.5612 33.9056 33.8491C30.4483 37.2431 25.7148 39.3415 20.4992 39.3415C15.2594 39.3415 10.5056 37.2247 7.04416 33.8034H7.04506ZM34.6553 33.076C32.0364 27.6328 26.5503 24.1491 20.4659 24.1491C14.4172 24.1491 8.92786 27.6176 6.30076 33.0277C3.2242 29.6284 1.34725 25.1243 1.34725 20.1892C1.34725 9.62864 9.93874 1.03723 20.4992 1.03723C31.0599 1.03723 39.6513 9.62873 39.6513 20.1892C39.6513 25.1473 37.757 29.6707 34.6548 33.0754L34.6553 33.076Z" fill="black"/>
<path d="M20.5001 4.91895C15.9488 4.91895 12.2461 8.62164 12.2461 13.1729C12.2461 17.7242 15.9488 21.4269 20.5001 21.4269C25.0514 21.4269 28.7541 17.7242 28.7541 13.1729C28.7541 8.62164 25.0514 4.91895 20.5001 4.91895ZM20.5001 20.4187C16.5045 20.4187 13.254 17.1682 13.254 13.1727C13.254 9.17712 16.5045 5.92659 20.5001 5.92659C24.4956 5.92659 27.7462 9.17712 27.7462 13.1727C27.7462 17.1679 24.4956 20.4187 20.5001 20.4187Z" fill="black"/>
</g>
<defs>
<clipPath id="clip0_60_1091">
<rect width="41" height="40" fill="white"/>
</clipPath>
</defs>
</svg>
