<svg width="41" height="41" viewBox="0 0 41 41" fill="none" xmlns="http://www.w3.org/2000/svg">
<g clip-path="url(#clip0_50_392)">
<path d="M20.4998 0.529053C9.38394 0.529053 0.339844 9.57225 0.339844 20.6891C0.339844 31.8059 9.38394 40.8491 20.4998 40.8491C31.6157 40.8491 40.6598 31.8059 40.6598 20.6891C40.6598 9.57315 31.6157 0.529053 20.4998 0.529053ZM7.04484 34.3034C9.4365 29.0461 14.6794 25.6571 20.4656 25.6571C26.2858 25.6571 31.5221 29.0612 33.9053 34.3491C30.4481 37.7431 25.7146 39.8415 20.4989 39.8415C15.2592 39.8415 10.5053 37.7247 7.04395 34.3034H7.04484ZM34.655 33.576C32.0362 28.1328 26.5501 24.6491 20.4656 24.6491C14.417 24.6491 8.92764 28.1176 6.30054 33.5277C3.22398 30.1284 1.34703 25.6243 1.34703 20.6892C1.34703 10.1286 9.93852 1.53723 20.499 1.53723C31.0596 1.53723 39.651 10.1287 39.651 20.6892C39.651 25.6473 37.7568 30.1707 34.6546 33.5754L34.655 33.576Z" fill="black"/>
<path d="M20.4996 5.41882C15.9483 5.41882 12.2456 9.12151 12.2456 13.6728C12.2456 18.2241 15.9483 21.9268 20.4996 21.9268C25.0509 21.9268 28.7536 18.2241 28.7536 13.6728C28.7536 9.12151 25.0509 5.41882 20.4996 5.41882ZM20.4996 20.9186C16.504 20.9186 13.2535 17.6681 13.2535 13.6725C13.2535 9.67699 16.504 6.42646 20.4996 6.42646C24.4951 6.42646 27.7457 9.67699 27.7457 13.6725C27.7457 17.6677 24.4951 20.9186 20.4996 20.9186Z" fill="black"/>
</g>
<defs>
<clipPath id="clip0_50_392">
<rect width="41" height="40" fill="white" transform="translate(0 0.5)"/>
</clipPath>
</defs>
</svg>
