<svg width="41" height="41" viewBox="0 0 41 41" fill="none" xmlns="http://www.w3.org/2000/svg">
<g clip-path="url(#clip0_251_974)">
<path d="M20.4998 0.529114C9.38394 0.529114 0.339844 9.57232 0.339844 20.6891C0.339844 31.8059 9.38394 40.8491 20.4998 40.8491C31.6157 40.8491 40.6598 31.8059 40.6598 20.6891C40.6598 9.57321 31.6157 0.529114 20.4998 0.529114ZM7.04484 34.3034C9.4365 29.0462 14.6794 25.6571 20.4656 25.6571C26.2858 25.6571 31.5221 29.0613 33.9053 34.3491C30.4481 37.7431 25.7146 39.8416 20.4989 39.8416C15.2592 39.8416 10.5053 37.7248 7.04395 34.3034H7.04484ZM34.655 33.576C32.0362 28.1328 26.5501 24.6491 20.4656 24.6491C14.417 24.6491 8.92764 28.1176 6.30054 33.5278C3.22398 30.1285 1.34703 25.6244 1.34703 20.6893C1.34703 10.1287 9.93852 1.53729 20.499 1.53729C31.0596 1.53729 39.651 10.1288 39.651 20.6893C39.651 25.6474 37.7568 30.1708 34.6546 33.5755L34.655 33.576Z" fill="black"/>
<path d="M20.4998 5.41891C15.9485 5.41891 12.2458 9.12161 12.2458 13.6729C12.2458 18.2242 15.9485 21.9269 20.4998 21.9269C25.0511 21.9269 28.7538 18.2242 28.7538 13.6729C28.7538 9.12161 25.0511 5.41891 20.4998 5.41891ZM20.4998 20.9187C16.5043 20.9187 13.2538 17.6682 13.2538 13.6726C13.2538 9.67708 16.5043 6.42655 20.4998 6.42655C24.4954 6.42655 27.7459 9.67708 27.7459 13.6726C27.7459 17.6678 24.4954 20.9187 20.4998 20.9187Z" fill="black"/>
</g>
<defs>
<clipPath id="clip0_251_974">
<rect width="41" height="40" fill="white" transform="translate(-0.000244141 0.5)"/>
</clipPath>
</defs>
</svg>
