<svg width="41" height="41" viewBox="0 0 41 41" fill="none" xmlns="http://www.w3.org/2000/svg">
<g clip-path="url(#clip0_230_201)">
<path d="M20.4998 0.529053C9.38394 0.529053 0.339844 9.57225 0.339844 20.6891C0.339844 31.8059 9.38394 40.8491 20.4998 40.8491C31.6157 40.8491 40.6598 31.8059 40.6598 20.6891C40.6598 9.57315 31.6157 0.529053 20.4998 0.529053ZM7.04484 34.3034C9.4365 29.0461 14.6794 25.6571 20.4656 25.6571C26.2858 25.6571 31.5221 29.0612 33.9053 34.3491C30.4481 37.7431 25.7146 39.8415 20.4989 39.8415C15.2592 39.8415 10.5053 37.7247 7.04394 34.3034H7.04484ZM34.655 33.576C32.0362 28.1328 26.5501 24.6491 20.4656 24.6491C14.417 24.6491 8.92764 28.1176 6.30054 33.5277C3.22398 30.1284 1.34703 25.6243 1.34703 20.6892C1.34703 10.1286 9.93853 1.53723 20.499 1.53723C31.0596 1.53723 39.651 10.1287 39.651 20.6892C39.651 25.6473 37.7568 30.1707 34.6546 33.5754L34.655 33.576Z" fill="black"/>
<path d="M20.4996 5.41895C15.9483 5.41895 12.2456 9.12164 12.2456 13.6729C12.2456 18.2242 15.9483 21.9269 20.4996 21.9269C25.0509 21.9269 28.7536 18.2242 28.7536 13.6729C28.7536 9.12164 25.0509 5.41895 20.4996 5.41895ZM20.4996 20.9187C16.504 20.9187 13.2535 17.6682 13.2535 13.6727C13.2535 9.67712 16.504 6.42659 20.4996 6.42659C24.4951 6.42659 27.7457 9.67712 27.7457 13.6727C27.7457 17.6679 24.4951 20.9187 20.4996 20.9187Z" fill="black"/>
</g>
<defs>
<clipPath id="clip0_230_201">
<rect width="41" height="40" fill="white" transform="translate(0 0.5)"/>
</clipPath>
</defs>
</svg>
