<svg width="57" height="41" viewBox="0 0 57 41" fill="none" xmlns="http://www.w3.org/2000/svg">
<path d="M11.234 0.500498C11.7067 0.505274 12.1579 0.692726 12.4874 1.02068C12.8163 1.34902 12.9959 1.79079 12.9864 2.24809V11.3773C12.9864 14.2301 10.9768 16.6507 8.26417 17.4036V38.764C8.27076 39.2221 8.08712 39.6638 7.75444 39.9902C7.42177 40.3161 6.9672 40.5 6.49328 40.5C6.01937 40.5 5.56482 40.3161 5.23212 39.9902C4.89944 39.6638 4.71581 39.222 4.72239 38.764V17.4036C2.00992 16.6506 0.000171324 14.2301 0.000171324 11.3773V2.24809C-0.00641645 1.78961 0.177219 1.34824 0.509896 1.0219C0.842995 0.695548 1.29714 0.511675 1.77106 0.511675C2.24538 0.511675 2.69952 0.695548 3.03222 1.0219C3.36492 1.34825 3.54854 1.78963 3.54195 2.24809V11.3773C3.54195 12.3332 4.00556 13.1634 4.72237 13.6772V2.24769C4.71249 1.78442 4.89736 1.33708 5.23457 1.00753C5.57137 0.678391 6.03252 0.495323 6.51176 0.500091C6.98443 0.504867 7.43569 0.692319 7.76512 1.02027C8.0941 1.34862 8.27402 1.79038 8.26415 2.24769V13.6772C8.98098 13.1634 9.44457 12.3333 9.44457 11.3773V2.24809C9.43469 1.78483 9.61914 1.33749 9.95636 1.00794C10.2936 0.678798 10.7547 0.49573 11.234 0.500498ZM50.1735 0.536317C52.1952 0.536317 53.9026 1.72675 54.988 3.29997C56.0733 4.87319 56.6667 6.89583 56.6667 9.09473C56.6667 11.2936 56.0734 13.2983 54.988 14.8716C54.2386 15.9581 53.1858 16.8535 51.9444 17.3145V38.7635C51.951 39.2216 51.7674 39.6633 51.4343 39.9897C51.1016 40.3156 50.6475 40.4995 50.1731 40.4995C49.6992 40.4995 49.2451 40.3156 48.9124 39.9897C48.5793 39.6633 48.3957 39.2215 48.4027 38.7635V17.3145C47.1613 16.854 46.1084 15.9582 45.3591 14.8716C44.2738 13.2983 43.6805 11.2936 43.6805 9.09473C43.6805 6.89583 44.2738 4.87319 45.3591 3.29997C46.4445 1.72675 48.1519 0.536317 50.1735 0.536317ZM50.1735 3.95989C49.5872 3.95989 48.9346 4.28544 48.3104 5.19005C47.6866 6.09469 47.2222 7.51234 47.2222 9.09473C47.2222 10.6771 47.6866 12.0769 48.3104 12.9815C48.9342 13.8861 49.5872 14.2296 50.1735 14.2296C50.7599 14.2296 51.4125 13.8861 52.0367 12.9815C52.6605 12.0768 53.1249 10.6767 53.1249 9.09473C53.1249 7.51234 52.6604 6.0947 52.0367 5.19005C51.4129 4.28542 50.7599 3.95989 50.1735 3.95989ZM28.3338 7.38345C37.7666 7.38345 45.4514 14.8115 45.4514 23.9297C45.4514 33.0477 37.7668 40.476 28.3338 40.476C18.9009 40.476 11.2161 33.0479 11.2161 23.9297C11.2161 14.8117 18.9011 7.38345 28.3338 7.38345ZM28.3338 10.807C20.8151 10.807 14.7577 16.6623 14.7577 23.9299C14.7577 31.1976 20.8152 37.0528 28.3338 37.0528C35.8525 37.0528 41.9098 31.1975 41.9098 23.9299C41.9098 16.6622 35.8528 10.807 28.3338 10.807ZM28.3338 14.8008C33.5286 14.8008 37.7782 18.9081 37.7782 23.93C37.7782 28.9515 33.5291 33.0592 28.3338 33.0592C23.1389 33.0592 18.8893 28.952 18.8893 23.93C18.8893 18.9086 23.1384 14.8008 28.3338 14.8008ZM28.3338 18.2244C25.0526 18.2244 22.4311 20.7584 22.4311 23.93C22.4311 27.1012 25.053 29.6356 28.3338 29.6356C31.6145 29.6356 34.2364 27.1012 34.2364 23.93C34.2364 20.7584 31.6149 18.2244 28.3338 18.2244Z" fill="black"/>
</svg>
