<svg width="57" height="45" viewBox="0 0 57 45" fill="none" xmlns="http://www.w3.org/2000/svg">
<path d="M11.234 0.000560461C11.7067 0.00593335 12.1579 0.216817 12.4874 0.585761C12.8163 0.955152 12.9959 1.45214 12.9864 1.96661V12.2369C12.9864 15.4463 10.9768 18.1695 8.26417 19.0166V43.047C8.27076 43.5623 8.08712 44.0593 7.75444 44.4264C7.42177 44.7931 6.9672 45 6.49328 45C6.01937 45 5.56482 44.7931 5.23212 44.4264C4.89944 44.0593 4.71581 43.5623 4.72239 43.047V19.0166C2.00992 18.1694 0.000171324 15.4463 0.000171324 12.2369V1.96661C-0.00641645 1.45081 0.177219 0.954269 0.509896 0.587136C0.842995 0.219992 1.29714 0.0131348 1.77106 0.0131348C2.24538 0.0131348 2.69952 0.219992 3.03222 0.587136C3.36492 0.954281 3.54854 1.45083 3.54195 1.96661V12.2369C3.54195 13.3124 4.00556 14.2464 4.72237 14.8244V1.96615C4.71249 1.44498 4.89736 0.941718 5.23457 0.570975C5.57137 0.20069 6.03252 -0.00526206 6.51176 0.000102226C6.98443 0.00547511 7.43569 0.216359 7.76512 0.585303C8.0941 0.954693 8.27403 1.45168 8.26415 1.96615V14.8244C8.98098 14.2464 9.44457 13.3124 9.44457 12.2369V1.96661C9.43469 1.44543 9.61914 0.942177 9.95636 0.571433C10.2936 0.201148 10.7547 -0.00480383 11.234 0.000560461ZM50.1735 0.0408571C52.1952 0.0408571 53.9026 1.3801 54.988 3.14997C56.0733 4.91984 56.6667 7.19531 56.6667 9.66907C56.6667 12.1428 56.0734 14.3981 54.988 16.168C54.2386 17.3903 53.1858 18.3977 51.9444 18.9163V43.0464C51.951 43.5618 51.7674 44.0587 51.4343 44.4259C51.1016 44.7926 50.6475 44.9994 50.1731 44.9994C49.6992 44.9994 49.2451 44.7926 48.9124 44.4259C48.5793 44.0587 48.3957 43.5617 48.4027 43.0464V18.9163C47.1613 18.3982 46.1084 17.3904 45.3591 16.168C44.2738 14.3981 43.6805 12.1428 43.6805 9.66907C43.6805 7.19531 44.2738 4.91984 45.3591 3.14997C46.4445 1.3801 48.1519 0.0408571 50.1735 0.0408571ZM50.1735 3.89237C49.5872 3.89237 48.9346 4.25862 48.3104 5.27631C47.6866 6.29402 47.2222 7.88888 47.2222 9.66907C47.2222 11.4493 47.6867 13.024 48.3104 14.0417C48.9342 15.0594 49.5872 15.4458 50.1735 15.4458C50.7599 15.4458 51.4125 15.0594 52.0367 14.0417C52.6605 13.0239 53.1249 11.4488 53.1249 9.66907C53.1249 7.88888 52.6604 6.29404 52.0367 5.27631C51.4129 4.2586 50.7599 3.89237 50.1735 3.89237ZM28.3338 7.74388C37.7666 7.74388 45.4514 16.1005 45.4514 26.3584C45.4514 36.6161 37.7668 44.973 28.3338 44.973C18.9009 44.973 11.2161 36.6164 11.2161 26.3584C11.2161 16.1007 18.9011 7.74388 28.3338 7.74388ZM28.3338 11.5954C20.815 11.5954 14.7577 18.1826 14.7577 26.3587C14.7577 34.5348 20.8152 41.1219 28.3338 41.1219C35.8525 41.1219 41.9098 34.5347 41.9098 26.3587C41.9098 18.1825 35.8528 11.5954 28.3338 11.5954ZM28.3338 16.0884C33.5286 16.0884 37.7782 20.7091 37.7782 26.3588C37.7782 32.0079 33.5291 36.6291 28.3338 36.6291C23.1389 36.6291 18.8893 32.0085 18.8893 26.3588C18.8893 20.7096 23.1384 16.0884 28.3338 16.0884ZM28.3338 19.94C25.0526 19.94 22.4311 22.7907 22.4311 26.3588C22.4311 29.9264 25.053 32.7776 28.3338 32.7776C31.6145 32.7776 34.2364 29.9264 34.2364 26.3588C34.2364 22.7907 31.6149 19.94 28.3338 19.94Z" fill="black"/>
</svg>
