<svg width="41" height="40" viewBox="0 0 41 40" fill="none" xmlns="http://www.w3.org/2000/svg">
<g clip-path="url(#clip0_50_989)">
<path d="M20.5001 0.0292969C9.38419 0.0292969 0.340088 9.0725 0.340088 20.1893C0.340088 31.3061 9.38419 40.3493 20.5001 40.3493C31.616 40.3493 40.6601 31.3061 40.6601 20.1893C40.6601 9.0734 31.616 0.0292969 20.5001 0.0292969ZM7.04509 33.8036C9.43675 28.5463 14.6796 25.1573 20.4659 25.1573C26.286 25.1573 31.5224 28.5615 33.9056 33.8493C30.4483 37.2433 25.7149 39.3418 20.4992 39.3418C15.2595 39.3418 10.5056 37.225 7.04419 33.8036H7.04509ZM34.6553 33.0762C32.0365 27.633 26.5503 24.1493 20.4659 24.1493C14.4173 24.1493 8.92789 27.6178 6.30079 33.028C3.22423 29.6287 1.34728 25.1245 1.34728 20.1895C1.34728 9.62888 9.93877 1.03748 20.4993 1.03748C31.0599 1.03748 39.6513 9.62897 39.6513 20.1895C39.6513 25.1476 37.7571 29.671 34.6548 33.0757L34.6553 33.0762Z" fill="black"/>
<path d="M20.5001 4.91895C15.9488 4.91895 12.2461 8.62164 12.2461 13.1729C12.2461 17.7242 15.9488 21.4269 20.5001 21.4269C25.0514 21.4269 28.7541 17.7242 28.7541 13.1729C28.7541 8.62164 25.0514 4.91895 20.5001 4.91895ZM20.5001 20.4187C16.5045 20.4187 13.254 17.1682 13.254 13.1727C13.254 9.17712 16.5045 5.92659 20.5001 5.92659C24.4956 5.92659 27.7462 9.17712 27.7462 13.1727C27.7462 17.1679 24.4956 20.4187 20.5001 20.4187Z" fill="black"/>
</g>
<defs>
<clipPath id="clip0_50_989">
<rect width="41" height="40" fill="white"/>
</clipPath>
</defs>
</svg>
