<svg width="41" height="40" viewBox="0 0 41 40" fill="none" xmlns="http://www.w3.org/2000/svg">
<g clip-path="url(#clip0_47_156)">
<path d="M20.5001 0.0290527C9.38419 0.0290527 0.340088 9.07225 0.340088 20.1891C0.340088 31.3059 9.38419 40.3491 20.5001 40.3491C31.616 40.3491 40.6601 31.3059 40.6601 20.1891C40.6601 9.07315 31.616 0.0290527 20.5001 0.0290527ZM7.04509 33.8034C9.43675 28.5461 14.6796 25.1571 20.4659 25.1571C26.286 25.1571 31.5224 28.5612 33.9056 33.8491C30.4483 37.2431 25.7149 39.3415 20.4992 39.3415C15.2595 39.3415 10.5056 37.2247 7.04419 33.8034H7.04509ZM34.6553 33.076C32.0365 27.6328 26.5503 24.1491 20.4659 24.1491C14.4173 24.1491 8.92789 27.6176 6.30079 33.0277C3.22423 29.6284 1.34728 25.1243 1.34728 20.1892C1.34728 9.62864 9.93877 1.03723 20.4993 1.03723C31.0599 1.03723 39.6513 9.62873 39.6513 20.1892C39.6513 25.1473 37.7571 29.6707 34.6548 33.0754L34.6553 33.076Z" fill="black"/>
<path d="M20.5001 4.91882C15.9488 4.91882 12.2461 8.62151 12.2461 13.1728C12.2461 17.7241 15.9488 21.4268 20.5001 21.4268C25.0514 21.4268 28.7541 17.7241 28.7541 13.1728C28.7541 8.62151 25.0514 4.91882 20.5001 4.91882ZM20.5001 20.4186C16.5045 20.4186 13.254 17.1681 13.254 13.1725C13.254 9.17699 16.5045 5.92646 20.5001 5.92646C24.4956 5.92646 27.7462 9.17699 27.7462 13.1725C27.7462 17.1677 24.4956 20.4186 20.5001 20.4186Z" fill="black"/>
</g>
<defs>
<clipPath id="clip0_47_156">
<rect width="41" height="40" fill="white"/>
</clipPath>
</defs>
</svg>
